<svg xmlns="http://www.w3.org/2000/svg" width="397" height="397" viewBox="0 0 397 397">
  <defs>
    <style>
      .cls-1 {
        fill: #fff;
        fill-rule: evenodd;
      }
    </style>
  </defs>
  <path id="Color_Fill_4" data-name="Color Fill 4" class="cls-1" d="M20.8,52.736c3.45,0.525,3.782,2.146,5.921,3.291A14.048,14.048,0,0,1,33.3,54.71c3.362,5.271,9.689,9.635,12.5,15.136l1.316,7.239c0.9,2.364,3.531,4.535,4.6,6.581,3.173,6.044,3.429,13.212,7.236,18.427,1.246,1.707,3.735,2.494,5.263,3.949l13.157,1.316c10.711-2.41,21.248-4.072,31.575-7.239,12.828-3.934,30.442-12.409,48.68-7.9,21.19,5.242,36.976,14.234,53.941,23.033,7.706,4,16.1,4.713,24.34,7.9,8.85,3.42,17.78,9.667,26.971,13.162,5.632,2.141,11.146,1.782,16.445,3.949,12.238,5,47.358,13.286,65.125,9.213h10.525a93.584,93.584,0,0,0,29.6-13.162c3.969-2.653,6.243-8.49,11.84-9.213v0.658h0.658c-2.344,10.448-10.963,16.828-18.419,22.375l-3.947,4.607c-3.823,2.627-10.178,5-14.472,6.581-7.515,2.758-16.08,3.288-25.655,3.29H320.772c-7.823,1.394-23.236-1.861-30.917-3.948-6.548-1.78-13.516-1.836-19.735-3.291h-9.21c-8.284-2.009-16.344-5.477-23.682-7.9-7.659-2.526-14.675-.715-21.708-0.658a36.19,36.19,0,0,0-3.289,7.9c-0.958,3.772,1.3,4.77,0,8.555-0.953,2.769-7.573,12.589-10.525,13.162-4.039-4.606-5.124-7.472-14.472-7.239-4.318,4.091-10.275,6.325-15.13,9.872-5.8,4.233-11.757,15.394-13.815,23.033-2.413,8.959-2.931,31.885-.657,42.118,0.942,4.244,3.855,12.849,1.973,18.427-4.524,13.41-17.247,17.965-28.286,25.007-5.294,3.377-12.671,9.493-16.446,14.479-1.157,1.527-1.715,3.593-3.289,4.606-2.627,1.691-5.6.195-9.21,1.316-4.6,1.428-8.3,3.832-15.13,3.949-1.74-2.13-5.819-2.381-7.236-4.607,1.9-2.227.675-3.082-.658-5.264,2.294-1.421,4.3-3.918,6.578-5.265,4.261-2.518,10.2-1.539,13.156-5.265,0.987-1.58-.813-1.564,1.316-2.632,1.943-1.178,5.341-.827,7.236-1.975,7.233-4.383,14-10.893,21.05-15.794,3.638-2.529,8.85-3.452,9.868-8.555-3.594-6.034,3.78-22.609,1.973-30.931-1.056-4.864.737-12.8-.658-18.426-2.191-8.837-5.043-18.805-7.236-27.641-1.539-6.2.476-17.464-2.631-21.717-1.136-1.554-13.8-2.2-16.446-3.29-4.083-1.688-13.986-8.134-19.077-5.923H93.822c1.334,7.124,4.764,22.4,11.841,23.691,2.213-2.7,11.58-7.01,16.446-7.239,2.11,2.057,2.729,1.969,2.631,6.581-4.6,3.788-3,11.433-11.183,11.846-4.379,3.625-14.142,3.316-19.735,1.974-0.959-3.949-3.329-7.7-4.6-11.187-2.716-7.418-3.161-15.747-5.92-22.376-1.39-3.338-1.874-7.336-4.6-9.213l-5.92-1.974c-4.264-2.141-21.569-12.441-23.682-15.8-2.976-4.723-9.634-13.9-11.183-18.426-1.665-4.86-.343-10.575-4.6-12.5H24.751c-1.3.829-3.313,0.031-5.263,0.658-2.856.918-6.938,3.436-10.525,3.949l-6.578-1.317a8.694,8.694,0,0,1-1.316-5.264c-3.422-4.236,2.165-6.857,4.6-9.214,4.4-4.248,8.907-10.32,13.814-13.82,3.649-2.6,8.3-3.2,9.21-8.555C25.05,65.707,21.3,58.421,20.8,52.736Z"/>
</svg>
